<svg xmlns="http://www.w3.org/2000/svg" viewBox="0 -56 1600 1256" font-family="-apple-system, BlinkMacSystemFont, 'Segoe UI', system-ui, sans-serif">
  <!-- Browser chrome -->
  <rect x="0" y="-56" width="1600" height="56" fill="#e5e7eb"/>
  <circle cx="28" cy="-28" r="8" fill="#ef4444"/>
  <circle cx="54" cy="-28" r="8" fill="#fbbf24"/>
  <circle cx="80" cy="-28" r="8" fill="#22c55e"/>
  <rect x="480" y="-42" width="640" height="28" rx="14" fill="#ffffff"/>
  <g transform="translate(508,-32)" stroke="#6b7280" stroke-width="1.4" fill="none">
    <path d="M2 6 V4 a3 3 0 0 1 6 0 V6 M0 6 H10 V12 H0 Z"/>
  </g>
  <text x="800" y="-23" font-size="13" fill="#6b7280" text-anchor="middle">app.bisly.com / building-management</text>
  <line x1="0" y1="0" x2="1600" y2="0" stroke="#d1d5db"/>

  <!-- Page bg -->
  <rect width="1600" height="1200" fill="#f6f9f8"/>

  <!-- ============ SIDEBAR ============ -->
  <rect x="0" y="0" width="260" height="1200" fill="#ffffff"/>
  <line x1="260" y1="0" x2="260" y2="1200" stroke="#e5e7eb"/>

  <g transform="translate(28,28)">
    <rect width="36" height="36" rx="9" fill="#5dd0a6"/>
    <path d="M12 9 H22 a5 5 0 0 1 0 10 H12 Z M12 16 H24 a5 5 0 0 1 0 10 H12 Z" fill="#ffffff"/>
  </g>
  <text x="76" y="50" font-size="18" font-weight="800" fill="#0f172a">Bisly</text>

  <!-- search -->
  <rect x="28" y="86" width="204" height="36" rx="10" fill="#f1f5f4"/>
  <g transform="translate(40,98)" stroke="#94a3b8" stroke-width="1.6" fill="none">
    <circle cx="6" cy="6" r="5"/>
    <line x1="10" y1="10" x2="15" y2="15" stroke-linecap="round"/>
  </g>
  <text x="64" y="110" font-size="12" fill="#94a3b8">Search anything</text>

  <!-- section: SALES -->
  <text x="28" y="156" font-size="10" font-weight="700" fill="#94a3b8" letter-spacing="2">SALES</text>
  <g font-size="13" font-weight="600" fill="#475569">
    <text x="28" y="184">Deals <tspan x="220" fill="#94a3b8">204</tspan></text>
    <text x="28" y="212">In progress <tspan x="220" fill="#94a3b8">8</tspan></text>
    <text x="28" y="240">Customers <tspan x="220" fill="#94a3b8">109</tspan></text>
  </g>

  <!-- section: OPERATIONS -->
  <text x="28" y="288" font-size="10" font-weight="700" fill="#94a3b8" letter-spacing="2">OPERATIONS</text>
  <g font-size="13" font-weight="600" fill="#475569">
    <text x="28" y="316">Sites <tspan x="220" fill="#94a3b8">451</tspan></text>
    <text x="28" y="344">Tasks <tspan x="220" fill="#94a3b8">23</tspan></text>
    <text x="28" y="372">Installations <tspan x="220" fill="#94a3b8">14</tspan></text>
    <text x="28" y="400">Maintenance <tspan x="220" fill="#94a3b8">2</tspan></text>
    <text x="48" y="428">Configurations</text>
    <text x="64" y="456" font-size="12">Presets</text>
    <text x="64" y="478" font-size="12">Units</text>
    <text x="64" y="500" font-size="12">Features</text>
    <text x="64" y="522" font-size="12">Devices</text>
    <text x="64" y="544" font-size="12">Services</text>
  </g>

  <!-- section: BUILDING MGMT (active) -->
  <text x="28" y="588" font-size="10" font-weight="700" fill="#94a3b8" letter-spacing="2">BUILDING MGMT</text>
  <rect x="20" y="600" width="220" height="32" rx="8" fill="#e8f8f0"/>
  <text x="36" y="621" font-size="13" font-weight="700" fill="#0f8a5a">Sites</text>
  <text x="220" y="621" font-size="11" font-weight="700" fill="#0f8a5a">9</text>
  <g font-size="13" font-weight="600" fill="#475569">
    <text x="36" y="652">Energy management</text>
    <text x="36" y="680">Environment</text>
    <text x="36" y="708">Occupancy</text>
    <text x="36" y="736">Alerts <tspan x="220" fill="#dc2626">3</tspan></text>
  </g>

  <!-- ============ TOP BAR ============ -->
  <rect x="260" y="0" width="1340" height="80" fill="#ffffff"/>
  <line x1="260" y1="80" x2="1600" y2="80" stroke="#e5e7eb"/>

  <!-- Breadcrumbs -->
  <text x="300" y="36" font-size="12" fill="#94a3b8">Bisly  ›  Building management  ›  Sites  ›  Vektor  ›  building-3</text>

  <!-- Filters -->
  <g transform="translate(300,50)">
    <rect width="120" height="28" rx="8" fill="#f1f5f4"/>
    <text x="14" y="19" font-size="11" font-weight="600" fill="#0f172a">Any unit type</text>
    <path d="M104 12 l4 5 l4 -5" stroke="#0f172a" stroke-width="1.4" fill="none"/>
  </g>
  <g transform="translate(430,50)">
    <rect width="120" height="28" rx="8" fill="#f1f5f4"/>
    <text x="14" y="19" font-size="11" font-weight="600" fill="#0f172a">Any room type</text>
    <path d="M104 12 l4 5 l4 -5" stroke="#0f172a" stroke-width="1.4" fill="none"/>
  </g>
  <g transform="translate(560,50)">
    <rect width="110" height="28" rx="8" fill="#f1f5f4"/>
    <text x="14" y="19" font-size="11" font-weight="600" fill="#0f172a">All features</text>
    <path d="M94 12 l4 5 l4 -5" stroke="#0f172a" stroke-width="1.4" fill="none"/>
  </g>
  <g transform="translate(680,50)">
    <rect width="100" height="28" rx="8" fill="#f1f5f4"/>
    <text x="14" y="19" font-size="11" font-weight="600" fill="#0f172a">Any status</text>
    <path d="M84 12 l4 5 l4 -5" stroke="#0f172a" stroke-width="1.4" fill="none"/>
  </g>

  <!-- Search + user -->
  <rect x="1240" y="22" width="200" height="36" rx="10" fill="#f1f5f4"/>
  <g transform="translate(1252,34)" stroke="#94a3b8" stroke-width="1.6" fill="none">
    <circle cx="6" cy="6" r="5"/>
    <line x1="10" y1="10" x2="15" y2="15" stroke-linecap="round"/>
  </g>
  <text x="1276" y="46" font-size="12" fill="#94a3b8">Search for anything</text>
  <rect x="1456" y="22" width="36" height="36" rx="18" fill="#e2e8f0"/>
  <circle cx="1474" cy="36" r="6" fill="#94a3b8"/>
  <path d="M1462 50 a14 14 0 0 1 24 0" fill="#94a3b8"/>
  <rect x="1500" y="22" width="36" height="36" rx="10" fill="#f1f5f4"/>
  <path d="M1512 32 a6 6 0 0 1 12 0 v8 l3 3 h-18 l3 -3 z" fill="#94a3b8"/>

  <!-- ============ MAIN LAYOUT ============ -->
  <!-- Floor list (left column) -->
  <rect x="280" y="100" width="44" height="1000" rx="10" fill="#ffffff" stroke="#e5e7eb"/>
  <g font-size="11" font-weight="700" fill="#475569">
    <text x="302" y="130" text-anchor="middle">14</text>
    <text x="302" y="170" text-anchor="middle">13</text>
    <rect x="288" y="184" width="28" height="28" rx="6" fill="#0f172a"/>
    <text x="302" y="204" text-anchor="middle" fill="#ffffff">12</text>
    <text x="302" y="244" text-anchor="middle">11</text>
    <text x="302" y="282" text-anchor="middle">10</text>
    <text x="302" y="320" text-anchor="middle">9</text>
    <text x="302" y="358" text-anchor="middle">8</text>
    <text x="302" y="396" text-anchor="middle">7</text>
    <text x="302" y="434" text-anchor="middle">6</text>
    <text x="302" y="472" text-anchor="middle">5</text>
    <text x="302" y="510" text-anchor="middle">4</text>
    <text x="302" y="548" text-anchor="middle">3</text>
    <rect x="288" y="562" width="28" height="28" rx="6" fill="#5dd0a6"/>
    <text x="302" y="582" text-anchor="middle" fill="#ffffff">2</text>
    <rect x="288" y="600" width="28" height="28" rx="6" fill="#2563eb"/>
    <text x="302" y="620" text-anchor="middle" fill="#ffffff">1</text>
    <rect x="288" y="638" width="28" height="28" rx="6" fill="#dc2626"/>
    <text x="302" y="658" text-anchor="middle" fill="#ffffff">-1</text>
  </g>

  <!-- Unit list (middle column) -->
  <rect x="340" y="100" width="320" height="1000" rx="14" fill="#ffffff" stroke="#e5e7eb"/>
  <g>
    <!-- Sort header -->
    <text x="360" y="128" font-size="11" font-weight="700" fill="#94a3b8">Sort by:</text>
    <text x="402" y="128" font-size="11" font-weight="800" fill="#0f172a">Units (12)</text>
    <text x="490" y="128" font-size="11" font-weight="700" fill="#94a3b8">Order:</text>
    <text x="524" y="128" font-size="11" font-weight="800" fill="#0f172a">Ascending</text>
    <line x1="356" y1="142" x2="644" y2="142" stroke="#e5e7eb"/>
  </g>

  <!-- Unit rows -->
  <g font-size="10" fill="#475569">
    <!-- Row 1 -->
    <rect x="356" y="156" width="288" height="58" rx="10" fill="#f8fafc"/>
    <text x="370" y="178" font-size="11" font-weight="800" fill="#0f172a">13</text>
    <text x="398" y="178" font-size="11" fill="#475569">2 people · 49.5m² · 5 rooms · 27°c</text>
    <text x="370" y="200" font-size="9" fill="#94a3b8">Last updated 2024/07/15 09:14:00</text>
    <circle cx="624" cy="186" r="10" fill="#ef4444"/>
    <text x="624" y="190" font-size="9" font-weight="800" fill="#ffffff" text-anchor="middle">3</text>

    <!-- Row 2 (highlighted) -->
    <rect x="356" y="222" width="288" height="58" rx="10" fill="#fff7ed" stroke="#fb923c"/>
    <text x="370" y="244" font-size="11" font-weight="800" fill="#0f172a">14</text>
    <text x="398" y="244" font-size="11" fill="#475569">2 people · 42.4m² · 4 rooms · 28°c</text>
    <text x="370" y="266" font-size="9" fill="#94a3b8">Last updated 2024/07/15 09:14:00</text>
    <circle cx="624" cy="252" r="10" fill="#ef4444"/>
    <text x="624" y="256" font-size="9" font-weight="800" fill="#ffffff" text-anchor="middle">2</text>

    <!-- Row 3 -->
    <rect x="356" y="288" width="288" height="58" rx="10" fill="#f8fafc"/>
    <text x="370" y="310" font-size="11" font-weight="800" fill="#0f172a">15</text>
    <text x="398" y="310" font-size="11" fill="#475569">3 people · 43.0m² · 5 rooms · 21°c</text>
    <text x="370" y="332" font-size="9" fill="#94a3b8">Last updated 2024/07/15 09:14:00</text>

    <!-- Row 4 -->
    <rect x="356" y="354" width="288" height="58" rx="10" fill="#f8fafc"/>
    <text x="370" y="376" font-size="11" font-weight="800" fill="#0f172a">16</text>
    <text x="398" y="376" font-size="11" fill="#475569">2 people · 37.4m² · 5 rooms · 21°c</text>
    <text x="370" y="398" font-size="9" fill="#94a3b8">Last updated 2024/07/15 09:14:00</text>

    <!-- Row 5 -->
    <rect x="356" y="420" width="288" height="58" rx="10" fill="#f8fafc"/>
    <text x="370" y="442" font-size="11" font-weight="800" fill="#0f172a">17</text>
    <text x="398" y="442" font-size="11" fill="#475569">2 people · 36.4m² · 4 rooms · 21°c</text>
    <text x="370" y="464" font-size="9" fill="#94a3b8">Last updated 2024/07/15 09:14:00</text>

    <!-- Row 6 -->
    <rect x="356" y="486" width="288" height="58" rx="10" fill="#f8fafc"/>
    <text x="370" y="508" font-size="11" font-weight="800" fill="#0f172a">18</text>
    <text x="398" y="508" font-size="11" fill="#475569">2 people · 35.4m² · 5 rooms · 22°c</text>
    <text x="370" y="530" font-size="9" fill="#94a3b8">Last updated 2024/07/15 09:14:00</text>

    <!-- Row 7 -->
    <rect x="356" y="552" width="288" height="58" rx="10" fill="#f8fafc"/>
    <text x="370" y="574" font-size="11" font-weight="800" fill="#0f172a">19</text>
    <text x="398" y="574" font-size="11" fill="#475569">2 people · 36.4m² · 4 rooms · 27°c</text>
    <text x="370" y="596" font-size="9" fill="#94a3b8">Last updated 2024/07/15 09:14:00</text>

    <!-- Row 8 -->
    <rect x="356" y="618" width="288" height="58" rx="10" fill="#f8fafc"/>
    <text x="370" y="640" font-size="11" font-weight="800" fill="#0f172a">20</text>
    <text x="398" y="640" font-size="11" fill="#475569">2 people · 35.7m² · 5 rooms · 21°c</text>
    <text x="370" y="662" font-size="9" fill="#94a3b8">Last updated 2024/07/15 09:14:00</text>

    <!-- Row 9 -->
    <rect x="356" y="684" width="288" height="58" rx="10" fill="#f8fafc"/>
    <text x="370" y="706" font-size="11" font-weight="800" fill="#0f172a">21</text>
    <text x="398" y="706" font-size="11" fill="#475569">2 people · 36.4m² · 5 rooms · 22°c</text>
    <text x="370" y="728" font-size="9" fill="#94a3b8">Last updated 2024/07/15 09:14:00</text>

    <!-- Row 10 -->
    <rect x="356" y="750" width="288" height="58" rx="10" fill="#f8fafc"/>
    <text x="370" y="772" font-size="11" font-weight="800" fill="#0f172a">22</text>
    <text x="398" y="772" font-size="11" fill="#475569">3 people · 38.4m² · 5 rooms · 22°c</text>
    <text x="370" y="794" font-size="9" fill="#94a3b8">Last updated 2024/07/15 09:14:00</text>
  </g>

  <!-- ============ FLOOR PLAN (main panel) ============ -->
  <rect x="680" y="100" width="900" height="1000" rx="14" fill="#ffffff" stroke="#e5e7eb"/>

  <!-- Floor plan background -->
  <rect x="704" y="124" width="852" height="952" rx="10" fill="#fafaf7"/>

  <!-- Grid hints -->
  <g stroke="#e2e8f0" stroke-width="0.7">
    <line x1="704" y1="220" x2="1556" y2="220"/>
    <line x1="704" y1="320" x2="1556" y2="320"/>
    <line x1="704" y1="420" x2="1556" y2="420"/>
    <line x1="704" y1="520" x2="1556" y2="520"/>
    <line x1="704" y1="620" x2="1556" y2="620"/>
    <line x1="704" y1="720" x2="1556" y2="720"/>
    <line x1="704" y1="820" x2="1556" y2="820"/>
    <line x1="704" y1="920" x2="1556" y2="920"/>
    <line x1="900" y1="124" x2="900" y2="1076"/>
    <line x1="1080" y1="124" x2="1080" y2="1076"/>
    <line x1="1260" y1="124" x2="1260" y2="1076"/>
    <line x1="1420" y1="124" x2="1420" y2="1076"/>
  </g>

  <!-- Floor plan rooms -->
  <!-- Room 24-01 Elutuba (highlighted occupied) -->
  <g>
    <rect x="1180" y="160" width="240" height="150" fill="#fef9c3" stroke="#0f172a" stroke-width="1.6"/>
    <text x="1190" y="184" font-size="11" font-weight="800" fill="#0f172a">24-01</text>
    <text x="1190" y="200" font-size="10" fill="#475569">Elutuba</text>
    <text x="1190" y="214" font-size="11" font-weight="700" fill="#0f172a">36.2 m²</text>
  </g>
  <!-- Room 24-04 Esik -->
  <g>
    <rect x="1424" y="160" width="120" height="100" fill="#fef9c3" stroke="#0f172a" stroke-width="1.4"/>
    <text x="1432" y="184" font-size="10" font-weight="800" fill="#0f172a">24-04</text>
    <text x="1432" y="198" font-size="9" fill="#475569">Esik</text>
    <text x="1432" y="212" font-size="10" font-weight="700" fill="#0f172a">2.8 m²</text>
  </g>

  <!-- Sensor pills with values -->
  <g>
    <!-- Humidity sensor (red) -->
    <g transform="translate(884,196)">
      <rect width="110" height="34" rx="17" fill="#dc2626"/>
      <circle cx="16" cy="17" r="9" fill="#fff" opacity="0.18"/>
      <text x="16" y="22" font-size="11" font-weight="800" fill="#fff" text-anchor="middle">💧</text>
      <text x="36" y="18" font-size="9" font-weight="700" fill="#fff">Humidity (%)</text>
      <text x="36" y="29" font-size="11" font-weight="800" fill="#fff">30</text>
      <text x="84" y="22" font-size="10" font-weight="800" fill="#fff" text-anchor="middle">›</text>
    </g>
    <!-- CO2 sensor -->
    <g transform="translate(996,196)">
      <rect width="124" height="34" rx="17" fill="#dc2626"/>
      <text x="14" y="22" font-size="9" font-weight="700" fill="#fff">CO₂ (ppm)</text>
      <text x="14" y="29" font-size="11" font-weight="800" fill="#fff">500</text>
      <text x="64" y="18" font-size="9" font-weight="700" fill="#fff">CO (ppm)</text>
      <text x="64" y="29" font-size="11" font-weight="800" fill="#fff">1.2</text>
      <rect x="100" y="6" width="18" height="22" rx="6" fill="#ffffff" opacity="0.18"/>
      <text x="109" y="22" font-size="9" font-weight="800" fill="#fff" text-anchor="middle">›</text>
    </g>
    <!-- Inspect button -->
    <g transform="translate(1122,196)">
      <rect width="74" height="34" rx="17" fill="#475569"/>
      <text x="37" y="22" font-size="11" font-weight="700" fill="#ffffff" text-anchor="middle">Inspect ›</text>
    </g>
  </g>

  <!-- Living room status icons (green dots) -->
  <g>
    <circle cx="1240" cy="270" r="9" fill="#22c55e"/>
    <text x="1240" y="274" font-size="11" font-weight="800" fill="#fff" text-anchor="middle">✓</text>
    <circle cx="1340" cy="270" r="9" fill="#22c55e"/>
    <text x="1340" y="274" font-size="11" font-weight="800" fill="#fff" text-anchor="middle">✓</text>
    <circle cx="1390" cy="270" r="9" fill="#22c55e"/>
  </g>

  <!-- Below: 13-06 Magamistuba room cluster -->
  <g>
    <rect x="720" y="340" width="180" height="160" fill="#fffae6" stroke="#0f172a" stroke-width="1.4"/>
    <text x="730" y="362" font-size="10" font-weight="800" fill="#0f172a">13-06</text>
    <text x="730" y="376" font-size="9" fill="#475569">rõdu</text>
    <text x="730" y="390" font-size="10" font-weight="700" fill="#0f172a">4.2 m²</text>
  </g>

  <g>
    <rect x="906" y="340" width="270" height="220" fill="#dcfce7" stroke="#0f172a" stroke-width="1.6"/>
    <text x="916" y="362" font-size="11" font-weight="800" fill="#0f172a">13-01</text>
    <text x="916" y="378" font-size="10" fill="#475569">Elutuba</text>
    <text x="916" y="394" font-size="11" font-weight="700" fill="#0f172a">31.0 m²</text>

    <!-- Total energy badge -->
    <rect x="916" y="408" width="200" height="60" rx="10" fill="#ffffff" stroke="#e5e7eb"/>
    <text x="926" y="426" font-size="9" font-weight="700" fill="#94a3b8">Total energy usage (kWh)</text>
    <text x="926" y="444" font-size="9" fill="#475569">Per m²</text>
    <text x="958" y="444" font-size="11" font-weight="800" fill="#0f172a">4.3</text>
    <text x="980" y="444" font-size="9" fill="#475569">Per occupant</text>
    <text x="1042" y="444" font-size="11" font-weight="800" fill="#0f172a">6.9</text>
    <text x="926" y="461" font-size="9" fill="#475569">Sensors active 8</text>
  </g>

  <!-- Bedrooms and surrounding rooms -->
  <g>
    <rect x="1182" y="340" width="240" height="220" fill="#fef3c7" stroke="#0f172a" stroke-width="1.4"/>
    <text x="1192" y="362" font-size="11" font-weight="800" fill="#0f172a">Vannituba</text>
    <text x="1192" y="378" font-size="10" fill="#475569">5.8 m²</text>

    <rect x="1428" y="340" width="118" height="220" fill="#fef9c3" stroke="#0f172a" stroke-width="1.4"/>
    <text x="1438" y="362" font-size="10" font-weight="800" fill="#0f172a">Korter 14</text>
  </g>

  <g>
    <rect x="720" y="540" width="180" height="240" fill="#fef9c3" stroke="#0f172a" stroke-width="1.4"/>
    <text x="730" y="562" font-size="10" font-weight="800" fill="#0f172a">Korter 13</text>
    <text x="730" y="578" font-size="9" fill="#475569">13-06</text>

    <rect x="906" y="600" width="270" height="180" fill="#dcfce7" stroke="#0f172a" stroke-width="1.4"/>
    <text x="916" y="624" font-size="11" font-weight="800" fill="#0f172a">Magamistuba</text>
    <text x="916" y="640" font-size="10" fill="#475569">12.0 m²</text>
    <!-- Auto badge -->
    <rect x="916" y="654" width="44" height="22" rx="6" fill="#ffffff"/>
    <text x="938" y="669" font-size="10" font-weight="800" fill="#0f172a" text-anchor="middle">Auto</text>
    <text x="966" y="669" font-size="10" font-weight="700" fill="#475569">Air 22°</text>
    <text x="966" y="685" font-size="10" font-weight="700" fill="#475569">Floor 18°</text>

    <rect x="1182" y="600" width="240" height="180" fill="#dcfce7" stroke="#0f172a" stroke-width="1.4"/>
    <text x="1192" y="624" font-size="11" font-weight="800" fill="#0f172a">Magamistuba</text>
    <text x="1192" y="640" font-size="10" fill="#475569">16.3 m²</text>
  </g>

  <!-- Bottom row rooms -->
  <g>
    <rect x="906" y="810" width="270" height="180" fill="#fef9c3" stroke="#0f172a" stroke-width="1.4"/>
    <text x="916" y="834" font-size="11" font-weight="800" fill="#0f172a">14-05</text>
    <text x="916" y="850" font-size="10" fill="#475569">rõdu</text>
    <text x="916" y="864" font-size="11" font-weight="700" fill="#0f172a">5.5 m²</text>

    <rect x="1182" y="810" width="240" height="180" fill="#dcfce7" stroke="#0f172a" stroke-width="1.4"/>
    <text x="1192" y="834" font-size="11" font-weight="800" fill="#0f172a">14-01</text>
    <text x="1192" y="850" font-size="10" fill="#475569">Elutuba</text>
    <text x="1192" y="864" font-size="11" font-weight="700" fill="#0f172a">22.3 m²</text>

    <rect x="1428" y="810" width="118" height="180" fill="#fef9c3" stroke="#0f172a" stroke-width="1.4"/>
    <text x="1438" y="834" font-size="9" font-weight="800" fill="#0f172a">SU-PP1.8p-2</text>
  </g>

  <!-- Status dots scattered (sensors) -->
  <g>
    <circle cx="980" cy="700" r="7" fill="#22c55e"/>
    <circle cx="1080" cy="700" r="7" fill="#22c55e"/>
    <circle cx="1250" cy="700" r="7" fill="#22c55e"/>
    <circle cx="1350" cy="700" r="7" fill="#22c55e"/>
    <circle cx="1000" cy="880" r="7" fill="#22c55e"/>
    <circle cx="1250" cy="880" r="7" fill="#22c55e"/>
  </g>

  <!-- Axis-style labels -->
  <g font-size="8" font-weight="700" fill="#94a3b8">
    <text x="720" y="148">A.1x1.a.12</text>
    <text x="1500" y="148" text-anchor="end">A.2x2.d.17</text>
    <text x="1500" y="1064" text-anchor="end">A.2x2.d.10</text>
  </g>
</svg>
