<svg xmlns="http://www.w3.org/2000/svg" viewBox="0 -56 1600 1256" font-family="-apple-system, BlinkMacSystemFont, 'Segoe UI', system-ui, sans-serif">
  <!-- Browser chrome -->
  <rect x="0" y="-56" width="1600" height="56" fill="#e5e7eb"/>
  <circle cx="28" cy="-28" r="8" fill="#ef4444"/>
  <circle cx="54" cy="-28" r="8" fill="#fbbf24"/>
  <circle cx="80" cy="-28" r="8" fill="#22c55e"/>
  <rect x="480" y="-42" width="640" height="28" rx="14" fill="#ffffff"/>
  <g transform="translate(508,-32)" stroke="#16a34a" stroke-width="1.4" fill="none">
    <path d="M2 6 V4 a3 3 0 0 1 6 0 V6 M0 6 H10 V12 H0 Z"/>
  </g>
  <text x="800" y="-23" font-size="13" fill="#6b7280" text-anchor="middle">creditservice.ge/payment</text>
  <line x1="0" y1="0" x2="1600" y2="0" stroke="#d1d5db"/>

  <rect width="1600" height="1200" fill="#fafaf7"/>

  <!-- Top nav -->
  <rect x="0" y="0" width="1600" height="84" fill="#ffffff"/>
  <line x1="0" y1="84" x2="1600" y2="84" stroke="#e5e7eb"/>
  <g transform="translate(60,20)">
    <circle cx="22" cy="22" r="22" fill="#facc15"/>
    <path d="M30 14 a10 10 0 1 0 0 16" fill="none" stroke="#0a1220" stroke-width="3.5" stroke-linecap="round"/>
    <path d="M28 18 V26 M24 22 H32" stroke="#0a1220" stroke-width="2.6" stroke-linecap="round"/>
  </g>
  <text x="116" y="36" font-size="20" font-weight="800" fill="#0f172a">კრედიტსერვისი +</text>
  <text x="116" y="58" font-size="11" fill="#6b7280">მიკროსაფინანსო ორგანიზაცია</text>

  <text x="470" y="50" font-size="15" fill="#0f172a">მთავარი</text>
  <text x="560" y="50" font-size="15" fill="#0f172a">კომპანიის შესახებ</text>
  <text x="754" y="50" font-size="15" fill="#0f172a">ანგარიშგება</text>
  <text x="898" y="50" font-size="15" fill="#0f172a">კონტაქტი</text>
  <g transform="translate(1322,24)">
    <rect width="218" height="44" rx="22" fill="#facc15"/>
    <text x="109" y="29" font-size="15" font-weight="700" fill="#0f172a" text-anchor="middle">მოითხოვე სესხი</text>
  </g>

  <!-- Title -->
  <text x="60" y="148" font-size="36" font-weight="800" fill="#0f172a">სესხის ონლაინ გადახდა</text>
  <text x="60" y="180" font-size="15" fill="#6b7280">გადაიხადეთ უსაფრთხოდ – ტრანზაქცია დაცულია 3D Secure-ით.</text>

  <!-- Stepper -->
  <g transform="translate(60,212)">
    <circle cx="14" cy="14" r="14" fill="#facc15"/>
    <text x="14" y="20" font-size="14" font-weight="800" fill="#0f172a" text-anchor="middle">1</text>
    <text x="36" y="20" font-size="13" font-weight="700" fill="#0f172a">სესხის დადასტურება</text>

    <path d="M200 14 H260" stroke="#e5e7eb" stroke-width="2"/>

    <circle cx="274" cy="14" r="14" fill="#0f172a"/>
    <text x="274" y="20" font-size="14" font-weight="800" fill="#facc15" text-anchor="middle">2</text>
    <text x="296" y="20" font-size="13" font-weight="700" fill="#0f172a">ბარათის დეტალები</text>

    <path d="M450 14 H510" stroke="#e5e7eb" stroke-width="2"/>

    <circle cx="524" cy="14" r="14" fill="#ffffff" stroke="#e5e7eb" stroke-width="1.6"/>
    <text x="524" y="20" font-size="14" font-weight="700" fill="#9ca3af" text-anchor="middle">3</text>
    <text x="546" y="20" font-size="13" fill="#6b7280">დადასტურება</text>
  </g>

  <!-- Layout: form left (940 wide), summary right (520 wide) -->
  <!-- ============ FORM ============ -->
  <g transform="translate(60,290)">
    <rect width="940" height="720" rx="14" fill="#ffffff" stroke="#e5e7eb"/>

    <text x="32" y="48" font-size="20" font-weight="800" fill="#0f172a">გადახდის დეტალები</text>

    <!-- Loan info row -->
    <g transform="translate(32,80)">
      <text font-size="11" font-weight="700" fill="#9ca3af" letter-spacing="0.5">პირადი ნომერი</text>
      <rect y="14" width="416" height="48" rx="10" fill="#fafafa" stroke="#e5e7eb"/>
      <text x="16" y="44" font-size="15" font-weight="600" fill="#0f172a">01001012345</text>
      <g transform="translate(388,28)" stroke="#16a34a" stroke-width="2.4" fill="none" stroke-linecap="round" stroke-linejoin="round">
        <path d="M2 8 l5 5 l10 -10"/>
      </g>
    </g>
    <g transform="translate(460,80)">
      <text font-size="11" font-weight="700" fill="#9ca3af" letter-spacing="0.5">სესხის ID</text>
      <rect y="14" width="416" height="48" rx="10" fill="#fafafa" stroke="#e5e7eb"/>
      <text x="16" y="44" font-size="15" font-weight="600" fill="#0f172a">CS-2024-04827</text>
      <g transform="translate(388,28)" stroke="#16a34a" stroke-width="2.4" fill="none" stroke-linecap="round" stroke-linejoin="round">
        <path d="M2 8 l5 5 l10 -10"/>
      </g>
    </g>

    <!-- Amount -->
    <g transform="translate(32,168)">
      <text font-size="11" font-weight="700" fill="#9ca3af" letter-spacing="0.5">გადასახდელი თანხა</text>
      <rect y="14" width="844" height="64" rx="12" fill="#fffbeb" stroke="#fde68a" stroke-width="1.6"/>
      <text x="22" y="56" font-size="32" font-weight="800" fill="#0f172a">285.40</text>
      <text x="138" y="56" font-size="22" font-weight="700" fill="#6b7280">₾</text>
      <text x="824" y="46" font-size="13" font-weight="700" fill="#16a34a" text-anchor="end">სრულად  ✓</text>
    </g>

    <line x1="32" y1="284" x2="908" y2="284" stroke="#f3f4f6"/>

    <!-- Card number -->
    <g transform="translate(32,308)">
      <text font-size="11" font-weight="700" fill="#9ca3af" letter-spacing="0.5">ბარათის ნომერი</text>
      <rect y="14" width="844" height="56" rx="12" fill="#ffffff" stroke="#0f172a" stroke-width="1.8"/>
      <text x="22" y="50" font-size="20" font-weight="700" fill="#0f172a" font-family="monospace">5392  ████  ████  4218</text>
      <g transform="translate(770,28)">
        <rect width="40" height="26" rx="3" fill="#ffffff" stroke="#e5e7eb"/>
        <circle cx="14" cy="13" r="8" fill="#ef4444"/>
        <circle cx="26" cy="13" r="8" fill="#fbbf24" opacity="0.85"/>
      </g>
    </g>

    <!-- Expiry + CVC -->
    <g transform="translate(32,400)">
      <text font-size="11" font-weight="700" fill="#9ca3af" letter-spacing="0.5">მოქმედების ვადა</text>
      <rect y="14" width="270" height="56" rx="12" fill="#ffffff" stroke="#e5e7eb"/>
      <text x="22" y="50" font-size="18" font-weight="600" fill="#0f172a" font-family="monospace">08 / 27</text>
    </g>
    <g transform="translate(316,400)">
      <text font-size="11" font-weight="700" fill="#9ca3af" letter-spacing="0.5">CVC</text>
      <rect y="14" width="270" height="56" rx="12" fill="#ffffff" stroke="#e5e7eb"/>
      <text x="22" y="50" font-size="18" font-weight="600" fill="#0f172a" font-family="monospace">•••</text>
      <g transform="translate(232,30)" stroke="#9ca3af" stroke-width="1.4" fill="none">
        <circle cx="10" cy="10" r="9"/>
        <text x="10" y="14" font-size="12" font-weight="700" fill="#9ca3af" text-anchor="middle">?</text>
      </g>
    </g>
    <g transform="translate(600,400)">
      <text font-size="11" font-weight="700" fill="#9ca3af" letter-spacing="0.5">ბარათზე სახელი</text>
      <rect y="14" width="276" height="56" rx="12" fill="#ffffff" stroke="#e5e7eb"/>
      <text x="22" y="50" font-size="16" font-weight="600" fill="#0f172a">N. KUPATADZE</text>
    </g>

    <!-- Save card + 3DS notice -->
    <g transform="translate(32,500)">
      <rect width="20" height="20" rx="4" fill="#facc15"/>
      <path d="M5 11 l4 4 l8 -8" stroke="#0f172a" stroke-width="2.4" fill="none" stroke-linecap="round" stroke-linejoin="round"/>
      <text x="32" y="16" font-size="14" font-weight="700" fill="#0f172a">დაიმახსოვრე ბარათი მომავალი გადახდისთვის</text>
    </g>

    <g transform="translate(32,540)">
      <rect width="844" height="72" rx="12" fill="#f0fdf4" stroke="#bbf7d0"/>
      <g transform="translate(20,18)" stroke="#15803d" stroke-width="2" fill="none" stroke-linecap="round" stroke-linejoin="round">
        <path d="M16 4 L24 0 L32 4 V14 a16 16 0 0 1 -16 14 a16 16 0 0 1 -16 -14 V4 Z" transform="translate(2,4)"/>
        <path d="M14 18 l4 4 l8 -8" transform="translate(2,4)"/>
      </g>
      <text x="62" y="32" font-size="13" font-weight="700" fill="#15803d">3D Secure</text>
      <text x="62" y="52" font-size="12" fill="#15803d" fill-opacity="0.85">გადარიცხვა გადის ბანკის უსაფრთხო გვერდით — დაგვინდობდით თქვენი ბარათის ერთჯერად კოდს.</text>
    </g>

    <line x1="32" y1="640" x2="908" y2="640" stroke="#f3f4f6"/>

    <!-- Buttons -->
    <g transform="translate(32,660)">
      <rect width="160" height="44" rx="22" fill="#ffffff" stroke="#e5e7eb"/>
      <path d="M58 22 l-6 -6 l6 -6" stroke="#0f172a" stroke-width="1.8" fill="none" stroke-linecap="round" stroke-linejoin="round"/>
      <text x="86" y="29" font-size="13" font-weight="700" fill="#0f172a">დაბრუნება</text>
    </g>
    <g transform="translate(672,660)">
      <rect width="204" height="44" rx="22" fill="#0f172a"/>
      <text x="84" y="29" font-size="14" font-weight="700" fill="#facc15">გადახდის დადასტურება</text>
      <path d="M180 22 l8 -6 l-8 -6" stroke="#facc15" stroke-width="2" fill="none" stroke-linecap="round" stroke-linejoin="round"/>
    </g>
  </g>

  <!-- ============ SUMMARY RIGHT ============ -->
  <g transform="translate(1020,290)">
    <rect width="520" height="720" rx="14" fill="#ffffff" stroke="#e5e7eb"/>

    <!-- Loan card -->
    <g transform="translate(28,32)">
      <rect width="464" height="180" rx="14" fill="#0f172a"/>
      <!-- decorative gold curve -->
      <path d="M364 -10 q120 30 90 200 q-60 -100 -160 -190 z" fill="#facc15" opacity="0.18"/>

      <text x="24" y="38" font-size="12" font-weight="700" fill="#facc15" letter-spacing="1">სესხის ID</text>
      <text x="24" y="62" font-size="18" font-weight="800" fill="#ffffff" font-family="monospace">CS-2024-04827</text>

      <text x="24" y="106" font-size="11" font-weight="600" fill="#9ca3af" letter-spacing="0.5">დარჩენილი ბალანსი</text>
      <text x="24" y="142" font-size="32" font-weight="800" fill="#ffffff">2,140.60 ₾</text>

      <g transform="translate(24,156)">
        <rect width="416" height="6" rx="3" fill="#1e293b"/>
        <rect width="270" height="6" rx="3" fill="#facc15"/>
      </g>
    </g>

    <text x="28" y="248" font-size="14" font-weight="700" fill="#0f172a">გადახდის შემაჯამებელი</text>

    <g transform="translate(28,272)">
      <text font-size="13" fill="#6b7280">თვის გადახდა</text>
      <text x="464" font-size="13" font-weight="700" fill="#0f172a" text-anchor="end">240.00 ₾</text>
    </g>
    <g transform="translate(28,302)">
      <text font-size="13" fill="#6b7280">პროცენტი (1.9%)</text>
      <text x="464" font-size="13" font-weight="700" fill="#0f172a" text-anchor="end">40.66 ₾</text>
    </g>
    <g transform="translate(28,332)">
      <text font-size="13" fill="#6b7280">საკომისიო</text>
      <text x="464" font-size="13" font-weight="700" fill="#0f172a" text-anchor="end">4.74 ₾</text>
    </g>

    <line x1="28" y1="356" x2="492" y2="356" stroke="#f3f4f6"/>

    <g transform="translate(28,388)">
      <text font-size="15" font-weight="800" fill="#0f172a">სრული თანხა</text>
      <text x="464" font-size="22" font-weight="800" fill="#0f172a" text-anchor="end">285.40 ₾</text>
    </g>

    <line x1="28" y1="420" x2="492" y2="420" stroke="#f3f4f6"/>

    <!-- Next due -->
    <g transform="translate(28,448)">
      <rect width="464" height="72" rx="12" fill="#fffbeb" stroke="#fde68a"/>
      <g transform="translate(18,18)" stroke="#d97706" stroke-width="1.8" fill="none" stroke-linecap="round" stroke-linejoin="round">
        <rect x="0" y="2" width="32" height="32" rx="3"/>
        <path d="M0 12 H32 M8 0 V6 M24 0 V6"/>
      </g>
      <text x="64" y="34" font-size="13" font-weight="700" fill="#0f172a">შემდეგი გადახდის თარიღი</text>
      <text x="64" y="54" font-size="12" fill="#92400e">15 ნოემბერი, 2025</text>
      <text x="446" y="42" font-size="22" font-weight="800" fill="#0f172a" text-anchor="end">240₾</text>
    </g>

    <!-- Trust -->
    <g transform="translate(28,544)">
      <text font-size="11" font-weight="700" fill="#9ca3af" letter-spacing="0.5">გადახდის უსაფრთხოება</text>
      <g transform="translate(0,16)">
        <rect width="100" height="40" rx="6" fill="#ffffff" stroke="#e5e7eb"/>
        <text x="50" y="26" font-size="13" font-weight="800" fill="#1d4ed8" text-anchor="middle">VISA</text>
      </g>
      <g transform="translate(112,16)">
        <rect width="100" height="40" rx="6" fill="#ffffff" stroke="#e5e7eb"/>
        <circle cx="42" cy="20" r="10" fill="#ef4444"/>
        <circle cx="58" cy="20" r="10" fill="#fbbf24" opacity="0.9"/>
      </g>
      <g transform="translate(224,16)">
        <rect width="124" height="40" rx="6" fill="#ffffff" stroke="#e5e7eb"/>
        <text x="62" y="26" font-size="12" font-weight="700" fill="#0f172a" text-anchor="middle">Apple / Google Pay</text>
      </g>
      <g transform="translate(360,16)">
        <rect width="132" height="40" rx="6" fill="#0f172a"/>
        <text x="66" y="26" font-size="11" font-weight="800" fill="#facc15" text-anchor="middle">3D Secure</text>
      </g>
    </g>

    <text x="28" y="660" font-size="11" fill="#9ca3af">ტრანზაქცია მუშავდება საქართველოს ბანკის უსაფრთხო პროცესორის მეშვეობით.</text>
  </g>
</svg>
