<svg xmlns="http://www.w3.org/2000/svg" viewBox="0 -56 1600 1256" font-family="-apple-system, BlinkMacSystemFont, 'Segoe UI', system-ui, sans-serif">
  <!-- Browser chrome -->
  <rect x="0" y="-56" width="1600" height="56" fill="#e5e7eb"/>
  <circle cx="28" cy="-28" r="8" fill="#ef4444"/>
  <circle cx="54" cy="-28" r="8" fill="#fbbf24"/>
  <circle cx="80" cy="-28" r="8" fill="#22c55e"/>
  <rect x="480" y="-42" width="640" height="28" rx="14" fill="#ffffff"/>
  <g transform="translate(508,-32)" stroke="#6b7280" stroke-width="1.4" fill="none">
    <path d="M2 6 V4 a3 3 0 0 1 6 0 V6 M0 6 H10 V12 H0 Z"/>
  </g>
  <text x="800" y="-23" font-size="13" fill="#6b7280" text-anchor="middle">cafeter.io/office-lunch</text>
  <line x1="0" y1="0" x2="1600" y2="0" stroke="#d1d5db"/>

  <!-- Page content -->
  <rect width="1600" height="1200" fill="#f8fafc"/>

  <!-- ============ TOP NAV ============ -->
  <rect x="0" y="0" width="1600" height="80" fill="#ffffff"/>
  <line x1="0" y1="80" x2="1600" y2="80" stroke="#e5e7eb"/>

  <!-- Brand -->
  <g transform="translate(60,22)">
    <rect width="40" height="40" rx="10" fill="#22c55e"/>
    <path d="M30 20 a12 12 0 1 0 -12 12" fill="none" stroke="#ffffff" stroke-width="3.6" stroke-linecap="round"/>
    <path d="M20 16 v10 M17 16 v4 M23 16 v4 M20 26 v5" stroke="#ffffff" stroke-width="2" stroke-linecap="round"/>
  </g>
  <text x="116" y="42" font-size="20" font-weight="800" fill="#0f172a">CAFETER.IO</text>
  <text x="116" y="62" font-size="10" font-weight="700" fill="#9ca3af" letter-spacing="2">CATERING PLATFORM</text>

  <!-- Services dropdown -->
  <text x="370" y="50" font-size="15" font-weight="600" fill="#0f172a">Services</text>
  <path d="M438 44 l6 6 l6 -6" stroke="#0f172a" stroke-width="1.7" fill="none" stroke-linecap="round" stroke-linejoin="round"/>

  <!-- Right side actions -->
  <g transform="translate(1232,22)">
    <rect width="58" height="38" rx="10" fill="#ffffff" stroke="#e5e7eb"/>
    <text x="18" y="25" font-size="13" font-weight="700" fill="#0f172a">GB</text>
    <path d="M38 17 l5 5 l5 -5" stroke="#0f172a" stroke-width="1.7" fill="none" stroke-linecap="round" stroke-linejoin="round"/>
  </g>
  <text x="1330" y="48" font-size="15" font-weight="600" fill="#0f172a">Sign in</text>
  <g transform="translate(1418,22)">
    <rect width="116" height="38" rx="10" fill="#16a34a"/>
    <text x="58" y="25" font-size="14" font-weight="700" fill="#ffffff" text-anchor="middle">Sign up</text>
  </g>

  <!-- ============ HERO LEFT TEXT ============ -->
  <text x="60" y="240" font-size="60" font-weight="800" fill="#0f172a">Smarter office</text>
  <text x="60" y="312" font-size="60" font-weight="800" fill="#0f172a">lunches.</text>
  <text x="60" y="396" font-size="60" font-weight="800" fill="#16a34a">Seamless</text>
  <text x="60" y="468" font-size="60" font-weight="800" fill="#16a34a">delivery.</text>

  <text x="60" y="524" font-size="18" fill="#6b7280">Connect kitchens, companies, and</text>
  <text x="60" y="552" font-size="18" fill="#6b7280">employees in one platform for menus,</text>
  <text x="60" y="580" font-size="18" fill="#6b7280">budgets, orders, invoices, and analytics.</text>

  <!-- CTA buttons -->
  <g transform="translate(60,624)">
    <rect width="180" height="56" rx="12" fill="#16a34a"/>
    <text x="60" y="36" font-size="16" font-weight="700" fill="#ffffff">Sign in</text>
    <path d="M124 28 l12 0 M132 22 l8 6 l-8 6" stroke="#ffffff" stroke-width="2.2" fill="none" stroke-linecap="round" stroke-linejoin="round"/>
  </g>
  <g transform="translate(260,624)">
    <rect width="240" height="56" rx="12" fill="#ffffff" stroke="#e5e7eb" stroke-width="1.4"/>
    <g transform="translate(28,18)" stroke="#0f172a" stroke-width="1.8" fill="none" stroke-linecap="round" stroke-linejoin="round">
      <path d="M2 16 V6 a2 2 0 0 1 2 -2 H20 a2 2 0 0 1 2 2 V16 Z"/>
      <path d="M2 8 H22"/>
      <circle cx="12" cy="2" r="2"/>
    </g>
    <text x="68" y="36" font-size="16" font-weight="700" fill="#0f172a">Partner with us</text>
  </g>

  <!-- Divider -->
  <line x1="60" y1="744" x2="540" y2="744" stroke="#e5e7eb"/>

  <!-- TRUSTED BY TEAMS -->
  <text x="60" y="794" font-size="12" font-weight="700" fill="#9ca3af" letter-spacing="2.5">TRUSTED BY TEAMS</text>

  <!-- Customer logos -->
  <g transform="translate(60,820)">
    <!-- Ezo Lunch logo -->
    <rect width="64" height="64" rx="14" fill="#ffffff" stroke="#e5e7eb"/>
    <circle cx="32" cy="32" r="22" fill="#ea580c"/>
    <path d="M22 24 q10 -6 20 0 q-2 14 -10 14 q-8 0 -10 -14z" fill="#fed7aa"/>
    <text x="32" y="36" font-size="9" font-weight="800" fill="#ffffff" text-anchor="middle">EZO</text>

    <!-- Blurred placeholder 1 -->
    <rect x="76" width="64" height="64" rx="14" fill="#f1f5f9"/>
    <circle cx="108" cy="32" r="16" fill="#e2e8f0"/>

    <!-- Blurred placeholder 2 -->
    <rect x="152" width="64" height="64" rx="14" fill="#f1f5f9"/>
    <circle cx="184" cy="32" r="16" fill="#e2e8f0"/>

    <!-- +5 -->
    <rect x="228" width="64" height="64" rx="14" fill="#ffffff" stroke="#e5e7eb"/>
    <text x="260" y="40" font-size="16" font-weight="700" fill="#6b7280" text-anchor="middle">+5</text>
  </g>

  <!-- ============ HERO RIGHT — iPhone with QR ============ -->
  <!-- Decorative dashed ring behind phone -->
  <circle cx="1180" cy="500" r="360" fill="none" stroke="#bbf7d0" stroke-width="2.5" stroke-dasharray="3 8"/>
  <circle cx="1180" cy="500" r="300" fill="none" stroke="#dcfce7" stroke-width="1.5" stroke-dasharray="2 6"/>

  <!-- QR Code -->
  <g transform="translate(1380,140)">
    <rect width="120" height="120" rx="14" fill="#ffffff" stroke="#e5e7eb" stroke-width="1.4"/>
    <g transform="translate(12,12)" fill="#0f172a">
      <!-- 3 corner finders -->
      <path d="M0 0 H26 V26 H0 Z M4 4 V22 H22 V4 Z M8 8 H18 V18 H8 Z" fill-rule="evenodd"/>
      <path d="M70 0 H96 V26 H70 Z M74 4 V22 H92 V4 Z M78 8 H88 V18 H78 Z" fill-rule="evenodd"/>
      <path d="M0 70 H26 V96 H0 Z M4 74 V92 H22 V74 Z M8 78 H18 V88 H8 Z" fill-rule="evenodd"/>
      <!-- random data dots -->
      <rect x="32" y="4" width="4" height="4"/>
      <rect x="40" y="4" width="4" height="4"/>
      <rect x="48" y="4" width="4" height="4"/>
      <rect x="60" y="4" width="4" height="4"/>
      <rect x="32" y="12" width="4" height="4"/>
      <rect x="44" y="12" width="4" height="4"/>
      <rect x="52" y="12" width="4" height="4"/>
      <rect x="64" y="12" width="4" height="4"/>
      <rect x="36" y="20" width="4" height="4"/>
      <rect x="48" y="20" width="4" height="4"/>
      <rect x="56" y="20" width="4" height="4"/>
      <rect x="32" y="32" width="4" height="4"/>
      <rect x="44" y="32" width="4" height="4"/>
      <rect x="56" y="32" width="4" height="4"/>
      <rect x="68" y="32" width="4" height="4"/>
      <rect x="80" y="32" width="4" height="4"/>
      <rect x="92" y="32" width="4" height="4"/>
      <rect x="4" y="40" width="4" height="4"/>
      <rect x="16" y="40" width="4" height="4"/>
      <rect x="36" y="40" width="4" height="4"/>
      <rect x="48" y="40" width="4" height="4"/>
      <rect x="60" y="40" width="4" height="4"/>
      <rect x="72" y="40" width="4" height="4"/>
      <rect x="84" y="40" width="4" height="4"/>
      <rect x="8" y="48" width="4" height="4"/>
      <rect x="24" y="48" width="4" height="4"/>
      <rect x="40" y="48" width="4" height="4"/>
      <rect x="52" y="48" width="4" height="4"/>
      <rect x="68" y="48" width="4" height="4"/>
      <rect x="80" y="48" width="4" height="4"/>
      <rect x="92" y="48" width="4" height="4"/>
      <rect x="4" y="56" width="4" height="4"/>
      <rect x="20" y="56" width="4" height="4"/>
      <rect x="32" y="56" width="4" height="4"/>
      <rect x="44" y="56" width="4" height="4"/>
      <rect x="56" y="56" width="4" height="4"/>
      <rect x="72" y="56" width="4" height="4"/>
      <rect x="84" y="56" width="4" height="4"/>
      <rect x="32" y="64" width="4" height="4"/>
      <rect x="40" y="64" width="4" height="4"/>
      <rect x="52" y="64" width="4" height="4"/>
      <rect x="64" y="64" width="4" height="4"/>
      <rect x="76" y="64" width="4" height="4"/>
      <rect x="88" y="64" width="4" height="4"/>
      <rect x="32" y="72" width="4" height="4"/>
      <rect x="40" y="72" width="4" height="4"/>
      <rect x="56" y="72" width="4" height="4"/>
      <rect x="72" y="72" width="4" height="4"/>
      <rect x="84" y="72" width="4" height="4"/>
      <rect x="92" y="72" width="4" height="4"/>
      <rect x="36" y="80" width="4" height="4"/>
      <rect x="48" y="80" width="4" height="4"/>
      <rect x="60" y="80" width="4" height="4"/>
      <rect x="76" y="80" width="4" height="4"/>
      <rect x="88" y="80" width="4" height="4"/>
      <rect x="32" y="88" width="4" height="4"/>
      <rect x="44" y="88" width="4" height="4"/>
      <rect x="56" y="88" width="4" height="4"/>
      <rect x="68" y="88" width="4" height="4"/>
      <rect x="80" y="88" width="4" height="4"/>
      <rect x="92" y="88" width="4" height="4"/>
    </g>
  </g>
  <text x="1440" y="290" font-size="13" fill="#6b7280" text-anchor="middle">Scan to Download</text>

  <!-- iPhone mockup -->
  <g transform="translate(970,180)">
    <!-- frame -->
    <rect x="0" y="0" width="320" height="640" rx="44" fill="#1f2937"/>
    <rect x="6" y="6" width="308" height="628" rx="38" fill="#0f172a"/>
    <rect x="12" y="12" width="296" height="616" rx="32" fill="#ffffff"/>
    <!-- notch -->
    <rect x="118" y="18" width="84" height="22" rx="11" fill="#0f172a"/>
    <!-- Cart screen content inside (scaled) -->
    <g transform="translate(12,12)">
      <!-- Status bar -->
      <text x="20" y="32" font-size="11" font-weight="700" fill="#0f172a">21:41</text>
      <g transform="translate(232,24)" fill="#0f172a">
        <rect x="0" y="4" width="2" height="3"/>
        <rect x="4" y="2" width="2" height="5"/>
        <rect x="8" y="0" width="2" height="7"/>
        <path d="M18 4 q3 -3 7 -3 q4 0 7 3" fill="none" stroke="#0f172a" stroke-width="1.2"/>
        <path d="M20 6 q2 -2 5 -2 q3 0 5 2" fill="none" stroke="#0f172a" stroke-width="1.2"/>
        <rect x="40" y="2" width="18" height="6" rx="1.5" fill="none" stroke="#0f172a" stroke-width="0.8"/>
        <rect x="41" y="3" width="14" height="4" rx="1" fill="#0f172a"/>
      </g>
      <text x="20" y="82" font-size="22" font-weight="800" fill="#0f172a">Cart</text>
      <text x="20" y="100" font-size="10" fill="#9ca3af">3 items</text>
      <rect x="220" y="62" width="56" height="22" rx="11" fill="#ffffff" stroke="#e5e7eb"/>
      <text x="248" y="76" font-size="9" font-weight="600" fill="#0f172a" text-anchor="middle">Clear All</text>

      <!-- Item 1: Chicken Nuggets -->
      <g transform="translate(12,118)">
        <rect width="272" height="100" rx="10" fill="#ffffff" stroke="#e5e7eb"/>
        <rect x="10" y="10" width="44" height="44" rx="8" fill="#fef3c7"/>
        <ellipse cx="22" cy="28" rx="10" ry="8" fill="#f59e0b"/>
        <ellipse cx="40" cy="22" rx="9" ry="7" fill="#fbbf24"/>
        <ellipse cx="42" cy="40" rx="9" ry="7" fill="#f59e0b"/>
        <circle cx="36" cy="36" r="5" fill="#b91c1c"/>
        <text x="66" y="26" font-size="12" font-weight="700" fill="#0f172a">Chicken Nuggets</text>
        <text x="66" y="42" font-size="10" fill="#9ca3af" text-decoration="line-through">$6.00</text>
        <text x="98" y="42" font-size="10" font-weight="700" fill="#16a34a">$2.00 each</text>
        <rect x="66" y="52" width="66" height="22" rx="6" fill="#f3f4f6"/>
        <text x="78" y="68" font-size="11" font-weight="700" fill="#0f172a" text-anchor="middle">−</text>
        <text x="99" y="68" font-size="10" font-weight="700" fill="#0f172a" text-anchor="middle">2</text>
        <text x="120" y="68" font-size="11" font-weight="700" fill="#0f172a" text-anchor="middle">+</text>
        <g transform="translate(244,52)" stroke="#dc2626" stroke-width="1.4" fill="none" stroke-linecap="round" stroke-linejoin="round">
          <path d="M0 4 H14"/>
          <path d="M2 4 V14 a1 1 0 0 0 1 1 h8 a1 1 0 0 0 1 -1 V4"/>
        </g>
        <line x1="10" y1="82" x2="262" y2="82" stroke="#f3f4f6"/>
        <text x="10" y="94" font-size="10" fill="#9ca3af">Subtotal:</text>
        <text x="262" y="94" font-size="11" font-weight="700" fill="#0f172a" text-anchor="end">$4.00</text>
      </g>

      <!-- Item 2: CocaCola -->
      <g transform="translate(12,234)">
        <rect width="272" height="100" rx="10" fill="#ffffff" stroke="#e5e7eb"/>
        <rect x="10" y="10" width="44" height="44" rx="8" fill="#fee2e2"/>
        <rect x="22" y="14" width="20" height="36" rx="3" fill="#dc2626"/>
        <text x="32" y="30" font-size="6" font-weight="800" fill="#ffffff" text-anchor="middle" font-style="italic">Coca</text>
        <text x="32" y="38" font-size="6" font-weight="800" fill="#ffffff" text-anchor="middle" font-style="italic">Cola</text>
        <text x="66" y="26" font-size="12" font-weight="700" fill="#0f172a">CocaCola</text>
        <text x="66" y="42" font-size="10" font-weight="700" fill="#0f172a">$2.00 each</text>
        <rect x="66" y="52" width="66" height="22" rx="6" fill="#f3f4f6"/>
        <text x="78" y="68" font-size="11" font-weight="700" fill="#0f172a" text-anchor="middle">−</text>
        <text x="99" y="68" font-size="10" font-weight="700" fill="#0f172a" text-anchor="middle">2</text>
        <text x="120" y="68" font-size="11" font-weight="700" fill="#0f172a" text-anchor="middle">+</text>
        <g transform="translate(244,52)" stroke="#dc2626" stroke-width="1.4" fill="none" stroke-linecap="round" stroke-linejoin="round">
          <path d="M0 4 H14"/>
          <path d="M2 4 V14 a1 1 0 0 0 1 1 h8 a1 1 0 0 0 1 -1 V4"/>
        </g>
        <line x1="10" y1="82" x2="262" y2="82" stroke="#f3f4f6"/>
        <text x="10" y="94" font-size="10" fill="#9ca3af">Subtotal:</text>
        <text x="262" y="94" font-size="11" font-weight="700" fill="#0f172a" text-anchor="end">$4.00</text>
      </g>

      <!-- Summary -->
      <g transform="translate(12,350)">
        <rect width="272" height="72" rx="10" fill="#ffffff" stroke="#e5e7eb"/>
        <text x="14" y="22" font-size="10" fill="#6b7280">Budget remaining:</text>
        <text x="258" y="22" font-size="10" font-weight="700" fill="#dc2626" text-anchor="end">$0.00</text>
        <text x="14" y="42" font-size="10" fill="#6b7280">Delivery:</text>
        <text x="258" y="42" font-size="10" font-weight="700" fill="#16a34a" text-anchor="end">Today</text>
        <text x="14" y="62" font-size="10" fill="#6b7280">Card charge:</text>
        <text x="258" y="62" font-size="10" font-weight="700" fill="#dc2626" text-anchor="end">$16.00</text>
      </g>

      <!-- Pay button -->
      <g transform="translate(12,440)">
        <rect width="272" height="42" rx="10" fill="#16a34a"/>
        <text x="136" y="27" font-size="12" font-weight="700" fill="#ffffff" text-anchor="middle">Pay $16.00 to Place Order</text>
      </g>

      <!-- Bottom tabs -->
      <line x1="0" y1="554" x2="296" y2="554" stroke="#e5e7eb"/>
      <text x="80" y="582" font-size="9" font-weight="600" fill="#9ca3af" text-anchor="middle">Menu</text>
      <text x="148" y="582" font-size="9" font-weight="700" fill="#16a34a" text-anchor="middle">Cart</text>
      <text x="216" y="582" font-size="9" font-weight="600" fill="#9ca3af" text-anchor="middle">Profile</text>
    </g>
  </g>

  <!-- App Store + Google Play buttons -->
  <g transform="translate(820,544)">
    <rect width="158" height="50" rx="10" fill="#0f172a"/>
    <g transform="translate(18,12)" fill="#ffffff">
      <path d="M14.6 14 c-0.8 1.1 -2.3 1.7 -3.6 1.7 c-0.2 -1.4 0.3 -2.8 1.2 -3.7 c0.9 -1 2.4 -1.7 3.7 -1.7 c0.1 1.3 -0.4 2.7 -1.3 3.7z"/>
      <path d="M15.7 16 c-2 -0.1 -3.8 1.1 -4.7 1.1 c-1 0 -2.5 -1.1 -4.2 -1.1 c-2.1 0 -4.2 1.3 -5.2 3.2 c-2.1 3.8 -0.5 9.4 1.6 12.5 c1 1.5 2.3 3.1 4 3.1 c1.5 -0.1 2.2 -1 4 -1 c1.9 0 2.4 1 4.2 1 c1.8 0 2.8 -1.5 3.8 -3 c1.2 -1.6 1.6 -3.4 1.7 -3.4 c-0.2 0 -3.3 -1.2 -3.4 -4.9 c0 -3.2 2.5 -4.5 2.7 -4.7 c-1.4 -2.1 -3.7 -2.4 -4.5 -2.5z"/>
    </g>
    <text x="50" y="22" font-size="9" fill="#ffffff">Download on the</text>
    <text x="50" y="40" font-size="18" font-weight="700" fill="#ffffff">App Store</text>
  </g>

  <g transform="translate(820,612)">
    <rect width="158" height="50" rx="10" fill="#0f172a"/>
    <g transform="translate(16,12)">
      <path d="M2 2 L18 14 L2 26 Z" fill="url(#playgrad)"/>
      <defs>
        <linearGradient id="playgrad" x1="0" x2="1" y1="0" y2="1">
          <stop offset="0" stop-color="#22c55e"/>
          <stop offset="0.5" stop-color="#fbbf24"/>
          <stop offset="1" stop-color="#ef4444"/>
        </linearGradient>
      </defs>
    </g>
    <text x="50" y="22" font-size="9" fill="#ffffff">GET IT ON</text>
    <text x="50" y="40" font-size="18" font-weight="700" fill="#ffffff">Google Play</text>
  </g>

  <!-- ============ STATS ROW ============ -->
  <line x1="60" y1="970" x2="1540" y2="970" stroke="#e5e7eb"/>

  <g transform="translate(0,1010)">
    <text x="320" y="60" font-size="64" font-weight="800" fill="#0f172a" text-anchor="middle">338+</text>
    <text x="320" y="120" font-size="14" fill="#6b7280" text-anchor="middle">Orders placed</text>
  </g>

  <g transform="translate(0,1010)">
    <text x="800" y="60" font-size="64" font-weight="800" fill="#0f172a" text-anchor="middle">12+</text>
    <text x="800" y="120" font-size="14" fill="#6b7280" text-anchor="middle">Employees served</text>
  </g>

  <g transform="translate(0,1010)">
    <text x="1280" y="60" font-size="64" font-weight="800" fill="#0f172a" text-anchor="middle">0</text>
    <text x="1280" y="120" font-size="14" fill="#6b7280" text-anchor="middle">Companies served</text>
  </g>
</svg>
